<?xml version="1.0" standalone="no"?>
<!DOCTYPE svg PUBLIC "-//W3C//DTD SVG 20010904//EN"
 "http://www.w3.org/TR/2001/REC-SVG-20010904/DTD/svg10.dtd">
<svg version="1.0" xmlns="http://www.w3.org/2000/svg"
 width="273.000000pt" height="273.000000pt" viewBox="0 0 273.000000 273.000000"
 preserveAspectRatio="xMidYMid meet">
<metadata>
Created by potrace 1.11, written by Peter Selinger 2001-2013
</metadata>
<g transform="translate(0.000000,273.000000) scale(0.100000,-0.100000)"
fill="#000000" stroke="none">
<path d="M1609 2719 c-126 -19 -244 -135 -329 -327 -22 -48 -39 -72 -53 -76
-31 -8 -37 -7 -37 5 0 5 4 8 9 5 4 -3 17 1 27 9 18 13 17 14 -15 28 -44 19
-81 13 -156 -23 -70 -34 -125 -84 -171 -157 -71 -110 -68 -187 7 -217 53 -21
162 -21 183 0 15 14 16 14 17 -3 0 -10 2 -27 4 -38 3 -11 6 -44 7 -72 l2 -53
35 33 c20 17 38 35 41 38 11 14 118 77 172 102 140 66 323 78 414 27 19 -11
37 -20 40 -20 9 0 -5 123 -21 184 -8 32 -15 59 -15 62 0 2 -15 13 -32 25 l-33
20 30 -7 c17 -3 40 -16 51 -29 l22 -23 35 36 c74 76 102 208 67 311 -21 64
-49 94 -114 126 -64 31 -128 43 -187 34z"/>
<path d="M1530 2013 c-112 -17 -280 -100 -375 -186 -78 -71 -96 -102 -97 -171
-2 -89 8 -94 77 -30 208 191 364 254 539 214 26 -6 69 -25 93 -42 49 -33 61
-29 64 22 8 124 9 122 -35 148 -67 40 -176 58 -266 45z"/>
<path d="M1503 1780 c-239 -49 -514 -334 -617 -642 -75 -224 -74 -434 3 -559
l29 -47 -37 -23 c-55 -36 -81 -97 -77 -180 4 -83 30 -139 92 -202 39 -39 107
-81 149 -94 84 -24 142 -32 221 -29 77 2 101 7 155 33 176 84 266 274 286 607
5 97 10 119 41 185 56 121 54 189 -6 213 -46 18 -135 33 -179 30 -80 -6 -107
-63 -112 -234 -1 -39 -6 -79 -11 -88 -13 -24 -104 -48 -167 -45 -101 5 -146
65 -145 193 0 161 68 354 179 509 102 143 222 197 239 108 8 -43 -1 -124 -20
-187 -12 -42 -12 -48 3 -62 45 -41 128 -23 191 43 64 66 90 143 87 258 -2 86
-10 111 -47 157 -40 49 -160 75 -257 56z m-179 -153 c-119 -84 -118 -83 -106
-61 24 46 132 124 171 124 18 0 2 -15 -65 -63z m256 -591 c0 -2 -20 -20 -45
-40 -50 -42 -61 -31 -16 15 25 24 61 39 61 25z m-145 -611 c-3 -97 -6 -119
-25 -145 -53 -74 -187 -48 -280 56 -39 44 -85 113 -78 119 2 3 18 1 34 -4 38
-11 125 -6 184 10 43 12 124 51 145 70 21 20 24 4 20 -106z m-345 -340 c38
-20 50 -30 37 -33 -28 -6 -106 25 -153 60 -92 70 -50 60 116 -27z"/>
</g>
</svg>
